<svg width="41" height="40" viewBox="0 0 41 40" fill="none" xmlns="http://www.w3.org/2000/svg">
<path d="M10.3838 22.7417L10.4838 22.5417C10.9005 21.7334 11.5588 21.075 12.3671 20.6584L12.5671 20.5584C13.3588 20.1584 13.3588 19.025 12.5671 18.6167L12.3671 18.5167C11.5588 18.1 10.9005 17.4417 10.4838 16.6334L10.3838 16.4334C9.98379 15.6417 8.85046 15.6417 8.44212 16.4334L8.34212 16.6334C7.92546 17.4417 7.26712 18.1 6.45879 18.5167L6.25879 18.6167C5.46712 19.0167 5.46712 20.15 6.25879 20.5584L6.45879 20.6584C7.26712 21.075 7.92546 21.7334 8.34212 22.5417L8.44212 22.7417C8.84212 23.5334 9.97546 23.5334 10.3838 22.7417Z" fill="#DD7D62"/>
<path d="M34.2421 29.45L34.0421 29.35C33.2338 28.9334 32.5755 28.275 32.1588 27.4667L32.0588 27.2667C31.6588 26.475 30.5255 26.475 30.1171 27.2667L30.0171 27.4667C29.6005 28.275 28.9421 28.9334 28.1338 29.35L27.9338 29.45C27.1421 29.85 27.1421 30.9834 27.9338 31.3917L28.1338 31.4917C28.9421 31.9084 29.6005 32.5667 30.0171 33.375L30.1171 33.575C30.5171 34.3667 31.6505 34.3667 32.0588 33.575L32.1588 33.375C32.5755 32.5667 33.2338 31.9084 34.0421 31.4917L34.2421 31.3917C35.0338 30.9917 35.0338 29.8584 34.2421 29.45Z" fill="#DD7D62"/>
<path d="M11.0171 12.3167L11.2838 12.45C12.1171 12.875 12.7838 13.5417 13.2088 14.375L13.3421 14.6417C13.8005 15.5417 14.7171 16.1 15.7255 16.1C16.7338 16.1 17.6505 15.5417 18.1171 14.6417L18.2505 14.375C18.6755 13.5417 19.3421 12.875 20.1755 12.45L20.4421 12.3167C21.3421 11.8584 21.9005 10.9417 21.9005 9.93336C21.9005 8.92503 21.3421 8.00836 20.4421 7.5417L20.1755 7.40836C19.3421 6.98336 18.6755 6.3167 18.2505 5.48336L18.1171 5.2167C17.6588 4.3167 16.7421 3.75836 15.7255 3.75836C14.7088 3.75836 13.8005 4.3167 13.3338 5.2167L13.2005 5.48336C12.7755 6.3167 12.1088 6.98336 11.2755 7.40836L11.0088 7.5417C10.1088 8.00003 9.55046 8.9167 9.55046 9.93336C9.55046 10.95 10.1088 11.8584 11.0088 12.325L11.0171 12.3167ZM12.1505 9.7667L12.4171 9.63336C13.7255 8.9667 14.7671 7.92503 15.4338 6.6167L15.5671 6.35003C15.5671 6.35003 15.6171 6.25003 15.7255 6.25003C15.8338 6.25003 15.8755 6.31669 15.8838 6.35003L16.0171 6.6167C16.6838 7.92503 17.7255 8.9667 19.0338 9.63336L19.3005 9.7667C19.3005 9.7667 19.4005 9.8167 19.4005 9.92503C19.4005 10.0334 19.3255 10.075 19.3005 10.0834L19.0338 10.2167C17.7255 10.8834 16.6838 11.925 16.0171 13.2334L15.8838 13.5C15.8838 13.5 15.8338 13.6 15.7255 13.6C15.6171 13.6 15.5755 13.525 15.5671 13.5L15.4338 13.2334C14.7671 11.925 13.7255 10.8834 12.4171 10.2167L12.1505 10.0834C12.1505 10.0834 12.0505 10.0334 12.0505 9.92503C12.0505 9.8167 12.1255 9.77503 12.1505 9.7667Z" fill="#DD7D62"/>
<path d="M35.9088 10.5417L34.2921 8.92503C33.6421 8.27503 32.7755 7.9167 31.8588 7.9167C30.9421 7.9167 30.0755 8.27503 29.4255 8.92503L12.1171 26.2334C12.1171 26.2334 12.1005 26.2584 12.0921 26.275C11.9921 26.3834 11.9088 26.5 11.8505 26.6334V26.65L9.44212 32.3917C9.06712 33.2834 9.27546 34.3 9.96712 34.9834C10.4171 35.425 11.0088 35.6584 11.6171 35.6584C11.9338 35.6584 12.2588 35.5917 12.5671 35.4584L18.1921 32.9917L18.2255 32.975C18.3588 32.9167 18.4671 32.8334 18.5671 32.7417C18.5755 32.7334 18.5921 32.725 18.6088 32.7167L35.9171 15.4084C36.5671 14.7584 36.9255 13.8917 36.9255 12.975C36.9255 12.0584 36.5671 11.1917 35.9171 10.5417H35.9088ZM17.7171 30.0667L14.7671 27.1167L27.7338 14.15L30.6838 17.1L17.7171 30.0667ZM34.1421 13.6417L32.4505 15.3334L29.5005 12.3834L31.1921 10.6917C31.5421 10.3334 32.1671 10.3334 32.5255 10.6917L34.1421 12.3084C34.3171 12.4834 34.4171 12.725 34.4171 12.975C34.4171 13.225 34.3171 13.4584 34.1421 13.6417Z" fill="#DD7D62"/>
</svg>
